<mxfile host="app.diagrams.net" modified="2023-02-25T02:46:07.418Z" agent="5.0 (Macintosh; Intel Mac OS X 10_15_7) AppleWebKit/537.36 (KHTML, like Gecko) Chrome/109.0.0.0 Safari/537.36" etag="H24PuksO32Gar4xhuBJb" version="20.8.23" type="github">
  <diagram name="Página-1" id="-iFmrY49mVbGGcGgWdaZ">
    <mxGraphModel dx="3180" dy="1800" grid="1" gridSize="10" guides="1" tooltips="1" connect="1" arrows="1" fold="1" page="1" pageScale="1" pageWidth="827" pageHeight="1169" math="0" shadow="0">
      <root>
        <mxCell id="0" />
        <mxCell id="1" parent="0" />
        <mxCell id="rQCUT940fFIQLlfpUqBY-5" style="edgeStyle=orthogonalEdgeStyle;rounded=0;orthogonalLoop=1;jettySize=auto;html=1;" edge="1" parent="1" source="rQCUT940fFIQLlfpUqBY-1" target="rQCUT940fFIQLlfpUqBY-6">
          <mxGeometry relative="1" as="geometry">
            <mxPoint x="410" y="110" as="targetPoint" />
          </mxGeometry>
        </mxCell>
        <mxCell id="rQCUT940fFIQLlfpUqBY-1" value="Início" style="strokeWidth=2;html=1;shape=mxgraph.flowchart.terminator;whiteSpace=wrap;" vertex="1" parent="1">
          <mxGeometry x="230" y="80" width="100" height="60" as="geometry" />
        </mxCell>
        <mxCell id="rQCUT940fFIQLlfpUqBY-2" value="Fim" style="strokeWidth=2;html=1;shape=mxgraph.flowchart.terminator;whiteSpace=wrap;" vertex="1" parent="1">
          <mxGeometry x="240" y="1040" width="100" height="60" as="geometry" />
        </mxCell>
        <mxCell id="rQCUT940fFIQLlfpUqBY-7" style="edgeStyle=orthogonalEdgeStyle;rounded=0;orthogonalLoop=1;jettySize=auto;html=1;exitX=0.5;exitY=1;exitDx=0;exitDy=0;exitPerimeter=0;" edge="1" parent="1" source="rQCUT940fFIQLlfpUqBY-6" target="rQCUT940fFIQLlfpUqBY-8">
          <mxGeometry relative="1" as="geometry">
            <mxPoint x="455" y="180" as="targetPoint" />
          </mxGeometry>
        </mxCell>
        <mxCell id="rQCUT940fFIQLlfpUqBY-6" value="Informe sua data de nascimento" style="strokeWidth=2;html=1;shape=mxgraph.flowchart.display;whiteSpace=wrap;" vertex="1" parent="1">
          <mxGeometry x="360" y="80" width="190" height="60" as="geometry" />
        </mxCell>
        <mxCell id="rQCUT940fFIQLlfpUqBY-9" style="edgeStyle=orthogonalEdgeStyle;rounded=0;orthogonalLoop=1;jettySize=auto;html=1;" edge="1" parent="1" source="rQCUT940fFIQLlfpUqBY-8" target="rQCUT940fFIQLlfpUqBY-10">
          <mxGeometry relative="1" as="geometry">
            <mxPoint x="450" y="310" as="targetPoint" />
          </mxGeometry>
        </mxCell>
        <mxCell id="rQCUT940fFIQLlfpUqBY-8" value="Leia a data de nascimento" style="html=1;strokeWidth=2;shape=manualInput;whiteSpace=wrap;rounded=1;size=26;arcSize=11;" vertex="1" parent="1">
          <mxGeometry x="360" y="180" width="190" height="60" as="geometry" />
        </mxCell>
        <mxCell id="rQCUT940fFIQLlfpUqBY-11" style="edgeStyle=orthogonalEdgeStyle;rounded=0;orthogonalLoop=1;jettySize=auto;html=1;" edge="1" parent="1" source="rQCUT940fFIQLlfpUqBY-10" target="rQCUT940fFIQLlfpUqBY-12">
          <mxGeometry relative="1" as="geometry">
            <mxPoint x="455" y="380" as="targetPoint" />
          </mxGeometry>
        </mxCell>
        <mxCell id="rQCUT940fFIQLlfpUqBY-10" value="Informe o ano atuak" style="strokeWidth=2;html=1;shape=mxgraph.flowchart.display;whiteSpace=wrap;" vertex="1" parent="1">
          <mxGeometry x="360" y="280" width="190" height="60" as="geometry" />
        </mxCell>
        <mxCell id="rQCUT940fFIQLlfpUqBY-13" style="edgeStyle=orthogonalEdgeStyle;rounded=0;orthogonalLoop=1;jettySize=auto;html=1;" edge="1" parent="1" source="rQCUT940fFIQLlfpUqBY-12" target="rQCUT940fFIQLlfpUqBY-14">
          <mxGeometry relative="1" as="geometry">
            <mxPoint x="455" y="490" as="targetPoint" />
          </mxGeometry>
        </mxCell>
        <mxCell id="rQCUT940fFIQLlfpUqBY-12" value="Leia o ano atual" style="html=1;strokeWidth=2;shape=manualInput;whiteSpace=wrap;rounded=1;size=26;arcSize=11;" vertex="1" parent="1">
          <mxGeometry x="380" y="380" width="150" height="60" as="geometry" />
        </mxCell>
        <mxCell id="rQCUT940fFIQLlfpUqBY-15" style="edgeStyle=orthogonalEdgeStyle;rounded=0;orthogonalLoop=1;jettySize=auto;html=1;" edge="1" parent="1" source="rQCUT940fFIQLlfpUqBY-14" target="rQCUT940fFIQLlfpUqBY-16">
          <mxGeometry relative="1" as="geometry">
            <mxPoint x="455" y="610" as="targetPoint" />
          </mxGeometry>
        </mxCell>
        <mxCell id="rQCUT940fFIQLlfpUqBY-14" value="idade da pessoa = ano atual - data de nascimento" style="rounded=1;whiteSpace=wrap;html=1;absoluteArcSize=1;arcSize=14;strokeWidth=2;" vertex="1" parent="1">
          <mxGeometry x="305" y="470" width="300" height="100" as="geometry" />
        </mxCell>
        <mxCell id="rQCUT940fFIQLlfpUqBY-17" style="edgeStyle=orthogonalEdgeStyle;rounded=0;orthogonalLoop=1;jettySize=auto;html=1;exitX=0.5;exitY=1;exitDx=0;exitDy=0;" edge="1" parent="1" source="rQCUT940fFIQLlfpUqBY-16" target="rQCUT940fFIQLlfpUqBY-18">
          <mxGeometry relative="1" as="geometry">
            <mxPoint x="455" y="750" as="targetPoint" />
          </mxGeometry>
        </mxCell>
        <mxCell id="rQCUT940fFIQLlfpUqBY-16" value="anos em 2063 = 2063 - data de nascimento" style="rounded=1;whiteSpace=wrap;html=1;absoluteArcSize=1;arcSize=14;strokeWidth=2;" vertex="1" parent="1">
          <mxGeometry x="320" y="610" width="270" height="100" as="geometry" />
        </mxCell>
        <mxCell id="rQCUT940fFIQLlfpUqBY-19" style="edgeStyle=orthogonalEdgeStyle;rounded=0;orthogonalLoop=1;jettySize=auto;html=1;entryX=1;entryY=0.5;entryDx=0;entryDy=0;entryPerimeter=0;" edge="1" parent="1" source="rQCUT940fFIQLlfpUqBY-18" target="rQCUT940fFIQLlfpUqBY-2">
          <mxGeometry relative="1" as="geometry" />
        </mxCell>
        <mxCell id="rQCUT940fFIQLlfpUqBY-18" value="Mostre: &quot;sua idade é:&quot;, idade da pessoa, &quot;em 2063 voce terá:&quot;, anos em 2063" style="strokeWidth=2;html=1;shape=mxgraph.flowchart.display;whiteSpace=wrap;" vertex="1" parent="1">
          <mxGeometry x="300" y="760" width="310" height="170" as="geometry" />
        </mxCell>
      </root>
    </mxGraphModel>
  </diagram>
</mxfile>
